<?xml version="1.0" encoding="utf-8"?>
<!-- Generator: Adobe Illustrator 22.0.1, SVG Export Plug-In . SVG Version: 6.00 Build 0)  -->
<svg version="1.1" xmlns="http://www.w3.org/2000/svg" xmlns:xlink="http://www.w3.org/1999/xlink" x="0px" y="0px"
	 viewBox="0 0 425.2 425.2" style="enable-background:new 0 0 425.2 425.2;" xml:space="preserve">
<style type="text/css">
	.st0{display:none;}
	.st1{display:inline;fill:none;stroke:#3E5052;stroke-width:2.488;stroke-linecap:round;}
	.st2{display:inline;}
	.st3{clip-path:url(#SVGID_2_);fill:none;stroke:#FFFFFF;stroke-width:9.879;stroke-miterlimit:28.135;}
	.st4{fill:#3E5052;}
	.st5{font-family:'Panton-Light';}
	.st6{font-size:73.0097px;}
	.st7{letter-spacing:2;}
	.st8{display:inline;fill:none;stroke:#3E5052;stroke-width:2.488;}
	.st9{clip-path:url(#SVGID_4_);fill:none;stroke:#FFFFFF;stroke-width:9.879;stroke-miterlimit:28.135;}
	.st10{display:inline;fill:#3E5052;}
	.st11{font-size:32.2033px;}
	.st12{letter-spacing:4;}
	.st13{display:inline;fill:#ED1C24;stroke:#ED1C24;stroke-width:2.488;stroke-linecap:round;}
	.st14{display:inline;fill:none;stroke:#3E5052;stroke-width:2.7;stroke-linecap:round;}
	.st15{clip-path:url(#SVGID_6_);fill:none;stroke:#FFFFFF;stroke-width:9.879;stroke-miterlimit:28.135;}
	.st16{clip-path:url(#SVGID_8_);fill:none;stroke:#FFFFFF;stroke-width:9.879;stroke-miterlimit:28.135;}
	.st17{letter-spacing:1;}
	.st18{display:inline;fill:none;}
	.st19{fill:#FFFFFF;}
</style>
<g id="Layer_1" class="st0">
	<line class="st1" x1="225.6" y1="111.7" x2="323.8" y2="111.7"/>
	<line class="st1" x1="100.5" y1="196.8" x2="187.3" y2="196.8"/>
	<g class="st2">
		<defs>
			<rect id="SVGID_1_" x="53.7" y="67.6" width="381.1" height="183.1"/>
		</defs>
		<clipPath id="SVGID_2_">
			<use xlink:href="#SVGID_1_"  style="overflow:visible;"/>
		</clipPath>
		<path class="st3" d="M175.1,159.8c0,11.3,9.9,12.8,19.1,13.9c8,0.9,15.6,2,15.6,10.7c0,7.7-5.4,11.5-15.9,11.5
			c-8.2,0-13.4-3.4-16.5-10.8c-0.4-0.7-0.6-0.8-1.2-0.6l-1.4,0.5c-0.7,0.3-0.8,0.6-0.5,1.3c3.5,8.7,9.4,12.8,19.6,12.8
			c12.7,0,19.3-5.4,19.3-14.9c0-11.2-9.3-12.8-18.2-13.8c-8.2-0.9-16.4-2.3-16.4-10.9c0-7,5.5-11.1,14.9-11.1
			c8.2,0,12.8,3.1,16.1,9.6c0.4,0.7,0.6,0.7,1.2,0.4l1.5-0.7c0.6-0.2,0.8-0.6,0.4-1.2c-3.8-7.7-9.3-11.3-19.1-11.3
			C181.9,145.3,175.1,150.9,175.1,159.8z"/>
		<path class="st3" d="M225.3,147.2v49.9c0,0.7,0.2,0.9,0.9,0.9h1.5c0.7,0,0.9-0.2,0.9-0.9v-49.9c0-0.7-0.2-0.9-0.9-0.9h-1.5
			C225.6,146.3,225.3,146.5,225.3,147.2z"/>
		<path class="st3" d="M277.3,165.6v13.3c0,10.1-6.4,16.1-17.7,16.1H247v-45.6h12.6C271,149.4,277.3,155.4,277.3,165.6z
			 M259.4,146.3h-14.9c-0.7,0-0.9,0.2-0.9,0.9v49.9c0,0.7,0.2,0.9,0.9,0.9h14.9c13.6,0,21.2-7.4,21.2-19.3v-13.3
			C280.6,153.7,273,146.3,259.4,146.3z"/>
		<path class="st3" d="M321.5,146.3h-29.8c-0.7,0-0.9,0.2-0.9,0.9v49.9c0,0.7,0.2,0.9,0.9,0.9h30.8c0.7,0,0.9-0.2,0.9-0.9v-1.3
			c0-0.7-0.3-0.9-0.9-0.9h-28.4v-21.5h24.2c0.7,0,0.9-0.2,0.9-0.9v-1.3c0-0.7-0.2-0.9-0.9-0.9h-24.2v-20.9h27.4
			c0.7,0,0.9-0.2,0.9-0.9v-1.3C322.4,146.5,322.2,146.3,321.5,146.3z"/>
	</g>
	<text transform="matrix(1 0 0 1 171.0245 198.1274)" class="st2"><tspan x="0" y="0" class="st4 st5 st6 st7">SI</tspan><tspan x="66.6" y="0" class="st4 st5 st6">DE</tspan></text>
	<line class="st8" x1="177.1" y1="111.7" x2="310.3" y2="111.7"/>
	<g class="st2">
		<defs>
			<rect id="SVGID_3_" x="53.7" y="67.6" width="381.1" height="183.1"/>
		</defs>
		<clipPath id="SVGID_4_">
			<use xlink:href="#SVGID_3_"  style="overflow:visible;"/>
		</clipPath>
		<path class="st9" d="M102.6,144.8v-33.4c0-0.7-0.2-0.9-0.9-0.9h-1.5c-0.7,0-0.9,0.2-0.9,0.9v33.4c0,11.3,6.4,18.6,19.3,18.6
			c12.8,0,19.2-7.3,19.2-18.6v-33.4c0-0.7-0.2-0.9-0.9-0.9h-1.6c-0.7,0-0.9,0.2-0.9,0.9v33.4c0,9.4-5.2,15.5-15.8,15.5
			C107.8,160.3,102.6,154.2,102.6,144.8z"/>
		<path class="st9" d="M169.6,139h-16.9v-25.4h16.9c8,0,12.9,4.7,12.9,12.8C182.5,134.4,177.5,139,169.6,139z M169.9,110.5h-19.6
			c-0.7,0-0.9,0.2-0.9,0.9v49.9c0,0.7,0.2,0.9,0.9,0.9h1.5c0.7,0,0.9-0.2,0.9-0.9v-19.2h17.2c9.9,0,16.1-5.9,16.1-15.8
			C186,116.4,179.7,110.5,169.9,110.5z"/>
	</g>
	<text transform="matrix(1 0 0 1 93.7276 162.3179)" class="st10 st5 st6">UP</text>
	<text transform="matrix(1 0 0 1 97.1016 239.938)" class="st10 st5 st11 st12">CONSULTING</text>
	<line class="st13" x1="101.1" y1="134.3" x2="101.1" y2="47.6"/>
</g>
<g id="Layer_2" class="st0">
	<line class="st14" x1="177.5" y1="111.8" x2="323.7" y2="111.8"/>
	<line class="st14" x1="100.5" y1="196.8" x2="187.3" y2="196.8"/>
	<g class="st2">
		<defs>
			<rect id="SVGID_5_" x="53.7" y="67.6" width="381.1" height="183.1"/>
		</defs>
		<clipPath id="SVGID_6_">
			<use xlink:href="#SVGID_5_"  style="overflow:visible;"/>
		</clipPath>
		<path class="st15" d="M175.1,159.8c0,11.3,9.9,12.8,19.1,13.9c8,0.9,15.6,2,15.6,10.7c0,7.7-5.4,11.5-15.9,11.5
			c-8.2,0-13.4-3.4-16.5-10.8c-0.4-0.7-0.6-0.8-1.2-0.6l-1.4,0.5c-0.7,0.3-0.8,0.6-0.5,1.3c3.5,8.7,9.4,12.8,19.6,12.8
			c12.7,0,19.3-5.4,19.3-14.9c0-11.2-9.3-12.8-18.2-13.8c-8.2-0.9-16.4-2.3-16.4-10.9c0-7,5.5-11.1,14.9-11.1
			c8.2,0,12.8,3.1,16.1,9.6c0.4,0.7,0.6,0.7,1.2,0.4l1.5-0.7c0.6-0.2,0.8-0.6,0.4-1.2c-3.8-7.7-9.3-11.3-19.1-11.3
			C181.9,145.3,175.1,150.9,175.1,159.8z"/>
		<path class="st15" d="M225.3,147.2v49.9c0,0.7,0.2,0.9,0.9,0.9h1.5c0.7,0,0.9-0.2,0.9-0.9v-49.9c0-0.7-0.2-0.9-0.9-0.9h-1.5
			C225.6,146.3,225.3,146.5,225.3,147.2z"/>
		<path class="st15" d="M277.3,165.6v13.3c0,10.1-6.4,16.1-17.7,16.1H247v-45.6h12.6C271,149.4,277.3,155.4,277.3,165.6z
			 M259.4,146.3h-14.9c-0.7,0-0.9,0.2-0.9,0.9v49.9c0,0.7,0.2,0.9,0.9,0.9h14.9c13.6,0,21.2-7.4,21.2-19.3v-13.3
			C280.6,153.7,273,146.3,259.4,146.3z"/>
		<path class="st15" d="M321.5,146.3h-29.8c-0.7,0-0.9,0.2-0.9,0.9v49.9c0,0.7,0.2,0.9,0.9,0.9h30.8c0.7,0,0.9-0.2,0.9-0.9v-1.3
			c0-0.7-0.3-0.9-0.9-0.9h-28.4v-21.5h24.2c0.7,0,0.9-0.2,0.9-0.9v-1.3c0-0.7-0.2-0.9-0.9-0.9h-24.2v-20.9h27.4
			c0.7,0,0.9-0.2,0.9-0.9v-1.3C322.4,146.5,322.2,146.3,321.5,146.3z"/>
	</g>
	<g class="st2">
		<defs>
			<rect id="SVGID_7_" x="53.7" y="67.6" width="381.1" height="183.1"/>
		</defs>
		<clipPath id="SVGID_8_">
			<use xlink:href="#SVGID_7_"  style="overflow:visible;"/>
		</clipPath>
		<path class="st16" d="M102.6,144.8v-33.4c0-0.7-0.2-0.9-0.9-0.9h-1.5c-0.7,0-0.9,0.2-0.9,0.9v33.4c0,11.3,6.4,18.6,19.3,18.6
			c12.8,0,19.2-7.3,19.2-18.6v-33.4c0-0.7-0.2-0.9-0.9-0.9h-1.6c-0.7,0-0.9,0.2-0.9,0.9v33.4c0,9.4-5.2,15.5-15.8,15.5
			C107.8,160.3,102.6,154.2,102.6,144.8z"/>
		<path class="st16" d="M169.6,139h-16.9v-25.4h16.9c8,0,12.9,4.7,12.9,12.8C182.5,134.4,177.5,139,169.6,139z M169.9,110.5h-19.6
			c-0.7,0-0.9,0.2-0.9,0.9v49.9c0,0.7,0.2,0.9,0.9,0.9h1.5c0.7,0,0.9-0.2,0.9-0.9v-19.2h17.2c9.9,0,16.1-5.9,16.1-15.8
			C186,116.4,179.7,110.5,169.9,110.5z"/>
	</g>
	<text transform="matrix(1 0 0 1 93.7276 162.3179)" class="st10 st5 st6">UP</text>
	<text transform="matrix(1 0 0 1 97.3851 239.938)" class="st10 st5 st11 st12">CONSULTING</text>
	<text transform="matrix(1 0 0 1 171.0245 198.1274)" class="st2"><tspan x="0" y="0" class="st4 st5 st6 st12">S</tspan><tspan x="49.6" y="0" class="st4 st5 st6 st17">ID</tspan><tspan x="115.1" y="0" class="st4 st5 st6">E</tspan></text>
	<rect x="245" y="40.4" class="st18" width="11.5" height="49"/>
</g>
<g id="Layer_2_copy">
	<path class="st19" d="M172.3,195.6h-71.8c-0.7,0-1.3,0.6-1.3,1.4s0.6,1.4,1.3,1.4h74.3C173.8,197.5,173,196.6,172.3,195.6z"/>
	<path class="st19" d="M325.1,110.7H185.8c0.9,0.8,1.8,1.7,2.5,2.7h136.8c0.7,0,1.3-0.6,1.3-1.4S325.9,110.7,325.1,110.7z"/>
	<g>
		<path class="st19" d="M108,217.1c5,0,7.4,1.9,8.5,5.6c0.1,0.3,0,0.4-0.3,0.5l-0.6,0.2c-0.3,0.1-0.5,0-0.5-0.3
			c-1-3.2-2.9-4.7-7.1-4.7c-4.8,0-7.2,2.4-7.2,6.5v8c0,4,2.5,6.5,7.2,6.5c4.3,0,6.1-1.7,7.1-4.9c0.1-0.3,0.3-0.4,0.5-0.3l0.6,0.2
			c0.3,0.1,0.4,0.2,0.3,0.5c-1.1,3.7-3.4,5.8-8.5,5.8c-5.6,0-8.7-3-8.7-8V225C99.3,220.1,102.3,217.1,108,217.1z"/>
		<path class="st19" d="M132.9,217.1c5.6,0,8.6,3,8.6,8v7.9c0,4.9-3,8-8.6,8c-5.7,0-8.7-3-8.7-8V225
			C124.2,220.1,127.2,217.1,132.9,217.1z M132.9,218.5c-4.7,0-7.2,2.4-7.2,6.6v7.9c0,4.1,2.5,6.6,7.2,6.6c4.6,0,7.1-2.4,7.1-6.6V225
			C140,220.9,137.5,218.5,132.9,218.5z"/>
		<path class="st19" d="M167.5,217.9v22c0,0.3-0.1,0.4-0.4,0.4h-0.7c-0.2,0-0.3,0-0.5-0.3l-11.4-16.3c-1.1-1.5-1.9-3.3-2.6-4.2h-0.1
			c0,1.2,0.2,3.3,0.2,5.3v15c0,0.3-0.1,0.4-0.4,0.4H151c-0.3,0-0.4-0.1-0.4-0.4v-22c0-0.3,0.1-0.4,0.4-0.4h0.6
			c0.3,0,0.4,0.1,0.5,0.2l11.1,15.9c1.2,1.7,2.2,3.5,3,4.6h0.1c0-1.4-0.2-3.6-0.2-5.8v-14.5c0-0.3,0.1-0.4,0.4-0.4h0.6
			C167.4,217.5,167.5,217.6,167.5,217.9z"/>
		<path class="st19" d="M184.4,217.1c4.3,0,6.8,1.6,8.4,5c0.2,0.3,0.1,0.5-0.2,0.5l-0.6,0.3c-0.3,0.1-0.4,0.1-0.5-0.2
			c-1.4-2.9-3.5-4.2-7.1-4.2c-4.2,0-6.6,1.8-6.6,4.9c0,3.8,3.6,4.4,7.2,4.8c3.9,0.5,8,1.1,8,6.1c0,4.2-2.9,6.6-8.5,6.6
			c-4.5,0-7.1-1.8-8.7-5.6c-0.1-0.3-0.1-0.5,0.2-0.6l0.6-0.2c0.3-0.1,0.4-0.1,0.5,0.3c1.4,3.3,3.7,4.8,7.3,4.8c4.6,0,7-1.7,7-5.1
			c0-3.8-3.3-4.3-6.9-4.7c-4-0.5-8.4-1.2-8.4-6.1C176.3,219.6,179.3,217.1,184.4,217.1z"/>
		<path class="st19" d="M210,239.5c4.7,0,7-2.7,7-6.8v-14.7c0-0.3,0.1-0.4,0.4-0.4h0.7c0.3,0,0.4,0.1,0.4,0.4v14.7
			c0,5-2.8,8.2-8.5,8.2c-5.7,0-8.5-3.2-8.5-8.2v-14.7c0-0.3,0.1-0.4,0.4-0.4h0.7c0.3,0,0.4,0.1,0.4,0.4v14.7
			C202.9,236.8,205.2,239.5,210,239.5z"/>
		<path class="st19" d="M229.4,217.9V239h11.7c0.3,0,0.4,0.1,0.4,0.4v0.6c0,0.3-0.1,0.4-0.4,0.4h-12.8c-0.3,0-0.4-0.1-0.4-0.4v-22
			c0-0.3,0.1-0.4,0.4-0.4h0.7C229.4,217.5,229.4,217.6,229.4,217.9z"/>
		<path class="st19" d="M263.2,217.9v0.6c0,0.3-0.1,0.4-0.4,0.4h-7V240c0,0.3-0.1,0.4-0.4,0.4h-0.7c-0.3,0-0.4-0.1-0.4-0.4v-21.1h-7
			c-0.3,0-0.4-0.1-0.4-0.4v-0.6c0-0.3,0.1-0.4,0.4-0.4h15.5C263.1,217.5,263.2,217.6,263.2,217.9z"/>
		<path class="st19" d="M271.1,217.5h0.7c0.3,0,0.4,0.1,0.4,0.4v22c0,0.3-0.1,0.4-0.4,0.4h-0.7c-0.3,0-0.4-0.1-0.4-0.4v-22
			C270.7,217.6,270.8,217.5,271.1,217.5z"/>
		<path class="st19" d="M298.7,217.9v22c0,0.3-0.1,0.4-0.4,0.4h-0.7c-0.2,0-0.3,0-0.5-0.3l-11.4-16.3c-1.1-1.5-1.9-3.3-2.6-4.2h-0.1
			c0,1.2,0.2,3.3,0.2,5.3v15c0,0.3-0.1,0.4-0.4,0.4h-0.6c-0.3,0-0.4-0.1-0.4-0.4v-22c0-0.3,0.1-0.4,0.4-0.4h0.6
			c0.3,0,0.4,0.1,0.5,0.2l11.1,15.9c1.2,1.7,2.2,3.5,3,4.6h0.1c0-1.4-0.2-3.6-0.2-5.8v-14.5c0-0.3,0.1-0.4,0.4-0.4h0.6
			C298.6,217.5,298.7,217.6,298.7,217.9z"/>
		<path class="st19" d="M325.1,229.3v3.8c0,4.7-3,7.8-8.6,7.8c-5.7,0-8.7-3.1-8.7-8V225c0-4.9,3-7.9,8.7-7.9c5,0,7.4,1.9,8.5,5.6
			c0.1,0.3,0,0.4-0.3,0.5l-0.6,0.2c-0.3,0.1-0.5,0-0.5-0.3c-1-3.2-2.9-4.7-7.1-4.7c-4.8,0-7.2,2.4-7.2,6.5v7.9
			c0,4.1,2.5,6.6,7.2,6.6c4.6,0,7.2-2.5,7.2-6.4v-2.8h-6.9c-0.3,0-0.4-0.1-0.4-0.4v-0.6c0-0.3,0.1-0.4,0.4-0.4h7.9
			C325,228.9,325.1,229,325.1,229.3z"/>
	</g>
	<g>
		<path class="st19" d="M118.6,160.4c10.7,0,15.8-6.1,15.8-15.5v-33.4c0-0.7,0.2-0.9,0.9-0.9h1.6c0.7,0,0.9,0.2,0.9,0.9V145
			c0,11.3-6.4,18.6-19.2,18.6c-12.9,0-19.3-7.3-19.3-18.6v-33.4c0-0.7,0.2-0.9,0.9-0.9h1.5c0.7,0,0.9,0.2,0.9,0.9V145
			C102.6,154.4,107.8,160.4,118.6,160.4z"/>
		<path class="st19" d="M186,126.6c0,9.9-6.2,15.8-16.1,15.8h-17.2v19.2c0,0.7-0.2,0.9-0.9,0.9h-1.5c-0.7,0-0.9-0.2-0.9-0.9v-49.9
			c0-0.7,0.2-0.9,0.9-0.9h19.6C179.7,110.6,186,116.6,186,126.6z M182.5,126.6c0-8-5-12.8-12.9-12.8h-16.9v25.4h16.9
			C177.5,139.2,182.5,134.5,182.5,126.6z"/>
	</g>
	<g>
		<path class="st19" d="M193.4,145.4c9.8,0,15.3,3.6,19.1,11.3c0.4,0.7,0.1,1-0.4,1.2l-1.5,0.7c-0.6,0.2-0.8,0.2-1.2-0.4
			c-3.3-6.5-7.9-9.6-16.1-9.6c-9.4,0-14.9,4.1-14.9,11.1c0,8.6,8.1,10,16.4,10.9c8.9,1,18.2,2.6,18.2,13.8c0,9.5-6.6,14.9-19.3,14.9
			c-10.2,0-16.1-4.1-19.6-12.8c-0.3-0.7-0.2-1,0.5-1.3l1.4-0.5c0.7-0.2,0.9-0.1,1.2,0.6c3.1,7.4,8.3,10.8,16.5,10.8
			c10.5,0,15.9-3.8,15.9-11.5c0-8.6-7.6-9.7-15.6-10.7c-9.1-1.1-19.1-2.6-19.1-13.9C175.1,151.1,181.9,145.4,193.4,145.4z"/>
		<path class="st19" d="M227.6,146.5h1.5c0.7,0,0.9,0.2,0.9,0.9v49.9c0,0.7-0.2,0.9-0.9,0.9h-1.5c-0.7,0-0.9-0.2-0.9-0.9v-49.9
			C226.7,146.7,226.9,146.5,227.6,146.5z"/>
		<path class="st19" d="M280.5,165.7V179c0,11.9-7.6,19.3-21.2,19.3h-14.9c-0.7,0-0.9-0.2-0.9-0.9v-49.9c0-0.7,0.2-0.9,0.9-0.9h14.9
			C272.9,146.5,280.5,153.8,280.5,165.7z M259.4,149.6h-12.6v45.6h12.6c11.4,0,17.7-6,17.7-16.1v-13.3
			C277.1,155.6,270.8,149.6,259.4,149.6z"/>
		<path class="st19" d="M323.8,147.4v1.3c0,0.7-0.2,0.9-0.9,0.9h-27.4v20.9h24.2c0.7,0,0.9,0.2,0.9,0.9v1.3c0,0.7-0.2,0.9-0.9,0.9
			h-24.2v21.5h28.4c0.7,0,0.9,0.2,0.9,0.9v1.3c0,0.7-0.3,0.9-0.9,0.9H293c-0.7,0-0.9-0.2-0.9-0.9v-49.9c0-0.7,0.2-0.9,0.9-0.9h29.8
			C323.5,146.5,323.8,146.7,323.8,147.4z"/>
	</g>
</g>
<g id="Layer_4" class="st0">
	<g class="st2">
		<path class="st4" d="M118.6,160.3c10.7,0,15.8-6.1,15.8-15.5v-33.4c0-0.7,0.2-0.9,0.9-0.9h1.6c0.7,0,0.9,0.2,0.9,0.9v33.4
			c0,11.3-6.4,18.6-19.2,18.6c-12.9,0-19.3-7.3-19.3-18.6v-33.4c0-0.7,0.2-0.9,0.9-0.9h1.5c0.7,0,0.9,0.2,0.9,0.9v33.4
			C102.6,154.2,107.8,160.3,118.6,160.3z"/>
		<path class="st4" d="M186,126.4c0,9.9-6.2,15.8-16.1,15.8h-17.2v19.2c0,0.7-0.2,0.9-0.9,0.9h-1.5c-0.7,0-0.9-0.2-0.9-0.9v-49.9
			c0-0.7,0.2-0.9,0.9-0.9h19.6C179.7,110.5,186,116.4,186,126.4z M182.5,126.4c0-8-5-12.8-12.9-12.8h-16.9V139h16.9
			C177.5,139,182.5,134.4,182.5,126.4z"/>
	</g>
	<g class="st2">
		<path class="st4" d="M193.4,145.3c9.8,0,15.3,3.6,19.1,11.3c0.4,0.7,0.1,1-0.4,1.2l-1.5,0.7c-0.6,0.2-0.8,0.2-1.2-0.4
			c-3.3-6.5-7.9-9.6-16.1-9.6c-9.4,0-14.9,4.1-14.9,11.1c0,8.6,8.1,10,16.4,10.9c8.9,1,18.2,2.6,18.2,13.8c0,9.5-6.6,14.9-19.3,14.9
			c-10.2,0-16.1-4.1-19.6-12.8c-0.3-0.7-0.2-1,0.5-1.3l1.4-0.5c0.7-0.2,0.9-0.1,1.2,0.6c3.1,7.4,8.3,10.8,16.5,10.8
			c10.5,0,15.9-3.8,15.9-11.5c0-8.6-7.6-9.7-15.6-10.7c-9.1-1.1-19.1-2.6-19.1-13.9C175.1,150.9,181.9,145.3,193.4,145.3z"/>
		<path class="st4" d="M227.6,146.3h1.5c0.7,0,0.9,0.2,0.9,0.9v49.9c0,0.7-0.2,0.9-0.9,0.9h-1.5c-0.7,0-0.9-0.2-0.9-0.9v-49.9
			C226.7,146.5,226.9,146.3,227.6,146.3z"/>
		<path class="st4" d="M280.5,165.6v13.3c0,11.9-7.6,19.3-21.2,19.3h-14.9c-0.7,0-0.9-0.2-0.9-0.9v-49.9c0-0.7,0.2-0.9,0.9-0.9h14.9
			C272.9,146.3,280.5,153.7,280.5,165.6z M259.4,149.4h-12.6V195h12.6c11.4,0,17.7-6,17.7-16.1v-13.3
			C277.1,155.4,270.8,149.4,259.4,149.4z"/>
		<path class="st4" d="M323.8,147.2v1.3c0,0.7-0.2,0.9-0.9,0.9h-27.4v20.9h24.2c0.7,0,0.9,0.2,0.9,0.9v1.3c0,0.7-0.2,0.9-0.9,0.9
			h-24.2V195h28.4c0.7,0,0.9,0.2,0.9,0.9v1.3c0,0.7-0.3,0.9-0.9,0.9H293c-0.7,0-0.9-0.2-0.9-0.9v-49.9c0-0.7,0.2-0.9,0.9-0.9h29.8
			C323.5,146.3,323.8,146.5,323.8,147.2z"/>
	</g>
</g>
</svg>
